<?xml version="1.0" encoding="UTF-8" standalone="no"?>
<!-- Created with Inkscape (http://www.inkscape.org/) -->

<svg
   xmlns:dc="http://purl.org/dc/elements/1.1/"
   xmlns:cc="http://creativecommons.org/ns#"
   xmlns:rdf="http://www.w3.org/1999/02/22-rdf-syntax-ns#"
   xmlns:svg="http://www.w3.org/2000/svg"
   xmlns="http://www.w3.org/2000/svg"
   xmlns:sodipodi="http://sodipodi.sourceforge.net/DTD/sodipodi-0.dtd"
   xmlns:inkscape="http://www.inkscape.org/namespaces/inkscape"
   width="886.83069"
   height="709.64319"
   id="svg2"
   version="1.1"
   inkscape:version="0.48.5 r10040"
   sodipodi:docname="paneel.svg">
  <defs
     id="defs4">
    <pattern
       id="Hatch"
       x="0"
       y="0"
       patternUnits="userSpaceOnUse"
       width="8"
       height="8">
      <path
         id="path2995"
         d="M8 4 l-4,4"
         stroke-width="0.25"
         stroke="#000000"
         linecap="square" />
      <path
         id="path2997"
         d="M6 2 l-4,4"
         stroke-width="0.25"
         stroke="#000000"
         linecap="square" />
      <path
         id="path2999"
         d="M4 0 l-4,4"
         stroke-width="0.25"
         stroke="#000000"
         linecap="square" />
    </pattern>
    <marker
       orient="auto"
       id="DistanceX"
       style="overflow:visible"
       refX="0"
       refY="0">
      <path
         id="path2992"
         d="M 3,-3 -3,3 M 0,-5 0,5"
         style="stroke:#000000;stroke-width:0.5"
         inkscape:connector-curvature="0" />
    </marker>
  </defs>
  <sodipodi:namedview
     id="base"
     pagecolor="#ffffff"
     bordercolor="#666666"
     borderopacity="1.0"
     inkscape:pageopacity="0.0"
     inkscape:pageshadow="2"
     inkscape:zoom="1.171011"
     inkscape:cx="310.19713"
     inkscape:cy="354.82159"
     inkscape:document-units="mm"
     inkscape:current-layer="layer2"
     showgrid="false"
     units="mm"
     fit-margin-top="50"
     fit-margin-left="50"
     fit-margin-right="50"
     fit-margin-bottom="50"
     inkscape:window-width="1920"
     inkscape:window-height="1018"
     inkscape:window-x="-8"
     inkscape:window-y="-8"
     inkscape:window-maximized="1" />
  <metadata
     id="metadata7">
    <rdf:RDF>
      <cc:Work
         rdf:about="">
        <dc:format>image/svg+xml</dc:format>
        <dc:type
           rdf:resource="http://purl.org/dc/dcmitype/StillImage" />
        <dc:title></dc:title>
      </cc:Work>
    </rdf:RDF>
  </metadata>
  <g
     inkscape:label="Layer 1"
     inkscape:groupmode="layer"
     id="layer1"
     transform="translate(68.421994,-177.54008)">
    <path
       style="fill:none;stroke:#000000;stroke-width:0.9992126;stroke-miterlimit:4;stroke-dasharray:none"
       d="m 109.33701,676.56768 -0.085,-2.4732 m 0.34366,4.9323 -0.25866,-2.4591 m 0.69095,4.8933 -0.43229,-2.4342 m 1.02756,4.833 -0.30835,-1.2426 -0.28692,-1.1562 m 1.36063,4.7516 -0.39605,-1.21749 -0.36931,-1.13531 m 1.6937,4.6453 -0.48054,-1.18668 -0.4478,-1.10582 m 2.0126,4.5177 -0.5608,-1.15092 -0.52346,-1.07428 m 2.32087,4.3654 -0.64052,-1.10854 -0.59609,-1.03166 m 2.6185,4.1917 -0.71526,-1.06185 -0.66663,-0.98965 m 2.90551,4.0004 -0.78853,-1.00863 -0.73509,-0.94027 m 3.17835,3.7878 -0.85638,-0.9517 -0.79835,-0.8872 m 3.43346,3.5539 -0.92166,-0.88864 -0.85707,-0.82636 m 3.67086,3.3059 -0.97993,-0.82393 -0.9122,-0.76697 m 3.8941,3.0437 -1.03619,-0.75195 -0.96578,-0.70085 m 4.09961,2.7638 -1.08568,-0.67854 -1.01196,-0.63246 m 4.28032,2.4732 -1.13007,-0.60172 -1.05261,-0.56048 m 4.44331,2.1685 -1.16964,-0.52065 -1.09099,-0.48565 m 4.58503,1.8532 -1.20293,-0.43829 -1.12147,-0.40861 m 4.70196,1.5272 -1.23089,-0.3522 -1.14667,-0.3281 m 4.79764,1.1941 -2.42008,-0.5138 m 4.86851,0.8575 -2.44843,-0.3437 m 4.91457,0.5173 -2.46614,-0.1736 m 465.56929,0.1736 c -154.36772,0 -308.73543,0 -463.10315,0 m 465.56929,-0.1736 -2.46614,0.1736 m 4.91456,-0.5173 -2.44842,0.3437 m 4.8685,-0.8575 -2.42008,0.5138 m 4.79764,-1.1941 -1.23089,0.3522 -1.14667,0.3281 m 4.70197,-1.5272 -1.20293,0.43829 -1.12148,0.40861 m 4.58504,-1.8532 -1.16964,0.52065 -1.09099,0.48565 m 4.44331,-2.1685 -1.13007,0.60172 -1.05261,0.56048 m 4.28032,-2.4732 -1.08568,0.67854 -1.01196,0.63246 m 4.09961,-2.7638 -1.03619,0.75195 -0.96578,0.70085 m 3.89409,-3.0437 -0.97993,0.82393 -0.91219,0.76697 m 3.67086,-3.3059 -0.92166,0.88863 -0.85708,0.82637 m 3.43347,-3.5539 -0.85638,0.9517 -0.79835,0.8872 m 3.17835,-3.7878 -0.78853,1.00863 -0.73509,0.94027 m 2.90551,-4.0004 -0.71526,1.06185 -0.66663,0.98965 m 2.6185,-4.1917 -0.64052,1.10854 -0.59609,1.03166 m 2.32086,-4.3654 -0.5608,1.15093 -0.52345,1.07427 m 2.0126,-4.5177 -0.48055,1.18668 -0.4478,1.10582 m 1.69371,-4.6453 -0.39605,1.21749 -0.36931,1.13531 m 1.36063,-4.7516 -0.30835,1.2426 -0.28692,1.1562 m 1.02755,-4.833 -0.43228,2.4342 m 0.69095,-4.8933 -0.25867,2.4591 m 0.3437,-4.9323 -0.085,2.4732 m 0.085,-285.93779 c 0,94.4882 0,188.97639 0,283.46459 m -0.085,-285.93782 0.085,2.47323 m -0.34367,-4.93229 0.25867,2.45906 m -0.69095,-4.89331 0.43228,2.43425 m -1.02755,-4.83307 0.30835,1.2426 0.28692,1.15622 m -1.36063,-4.75157 0.39605,1.21748 0.36931,1.13527 m -1.69371,-4.64527 0.48054,1.18668 0.44781,1.10584 m -2.0126,-4.51772 0.5608,1.15093 0.52345,1.07427 m -2.32086,-4.36536 0.64053,1.10854 0.59608,1.03162 m -2.6185,-4.19173 0.71525,1.06186 0.66664,0.98971 m -2.90551,-4.00039 0.78855,1.00862 0.73507,0.9402 m -3.17835,-3.7878 0.85636,0.95172 0.79837,0.88726 m -3.43347,-3.55394 0.92167,0.88862 0.85707,0.82634 m -3.67086,-3.3059 0.97992,0.82394 0.9122,0.767 m -3.89409,-3.0437 1.0362,0.75194 0.96577,0.70082 m -4.09961,-2.76378 1.08568,0.67855 1.01196,0.63247 m -4.28032,-2.47322 1.13007,0.60172 1.05261,0.56048 m -4.44331,-2.1685 1.16964,0.52065 1.09099,0.48565 m -4.58504,-1.85316 1.20293,0.43827 1.12148,0.40859 m -4.70197,-1.52717 1.23089,0.3522 1.14667,0.32811 m -4.79764,-1.19409 2.42008,0.51378 m -4.8685,-0.85748 2.44842,0.3437 m -4.91456,-0.51732 2.46614,0.17362 m -465.56929,-0.17362 c 154.36772,0 308.73543,0 463.10315,0 m -465.56929,0.17362 2.46614,-0.17362 m -4.91457,0.51732 2.44843,-0.3437 m -4.86851,0.85748 2.42008,-0.51378 m -4.79764,1.19409 1.23089,-0.3522 1.14667,-0.32811 m -4.70196,1.52717 1.20293,-0.43827 1.12147,-0.40859 m -4.58503,1.85316 1.16964,-0.52065 1.09099,-0.48565 m -4.44331,2.1685 1.13007,-0.60172 1.05261,-0.56048 m -4.28032,2.47322 1.08568,-0.67855 1.01196,-0.63247 m -4.09961,2.76378 1.0362,-0.75194 0.96577,-0.70082 m -3.8941,3.0437 0.97992,-0.82394 0.91221,-0.767 m -3.67086,3.3059 0.92167,-0.88863 0.85706,-0.82633 m -3.43346,3.55394 0.85636,-0.95172 0.79837,-0.88726 m -3.17835,3.7878 0.78855,-1.00862 0.73507,-0.9402 m -2.90551,4.00039 0.71525,-1.06186 0.66664,-0.98971 m -2.6185,4.19173 0.64053,-1.10854 0.59608,-1.03162 m -2.32087,4.36536 0.5608,-1.15092 0.52346,-1.07428 m -2.0126,4.51772 0.48054,-1.18668 0.4478,-1.10584 m -1.6937,4.64527 0.39605,-1.21748 0.36931,-1.13527 m -1.36063,4.75157 0.30835,-1.2426 0.28692,-1.15622 m -1.02756,4.83307 0.43229,-2.43425 m -0.69095,4.89331 0.25866,-2.45906 m -0.3437,4.93229 0.085,-2.47323 m -0.085,285.93782 c 0,-94.4882 0,-188.97639 0,-283.46459"
       id="path3185"
       inkscape:connector-curvature="0" />
  </g>
  <g
     inkscape:groupmode="layer"
     id="layer2"
     inkscape:label="Layer"
     style="display:inline">
    <path
       transform="translate(68.421994,-177.54008)"
       id="path3369"
       style="fill:none;stroke:#000000;stroke-width:0.9992126;stroke-miterlimit:4;stroke-dasharray:none"
       d="m 144.77008,641.13458 c -0.0283,-0.8244 -0.0567,-1.6488 -0.085,-2.4732 m 0.34366,4.9323 c -0.0862,-0.8197 -0.17244,-1.6394 -0.25866,-2.4591 m 0.69095,4.8933 c -0.1441,-0.8114 -0.28819,-1.6228 -0.43229,-2.4342 m 1.02756,4.8331 c -0.19842,-0.79963 -0.39685,-1.59927 -0.59527,-2.3989 m 1.36063,4.7516 c -0.25512,-0.78423 -0.51024,-1.56847 -0.76536,-2.3527 m 1.6937,4.6452 c -0.30945,-0.76417 -0.61889,-1.52833 -0.92834,-2.2925 m 2.0126,4.5177 c -0.36142,-0.74173 -0.72284,-1.48347 -1.08426,-2.2252 m 2.32087,4.3654 c -0.4122,-0.7134 -0.82441,-1.4268 -1.23661,-2.1402 m 2.6185,4.1918 c -0.46063,-0.68387 -0.92126,-1.36773 -1.38189,-2.0516 m 2.90551,4.0004 c -0.50787,-0.6496 -1.01575,-1.2992 -1.52362,-1.9488 m 3.17835,3.7878 c -0.55158,-0.613 -1.10315,-1.226 -1.65473,-1.839 m 3.43347,3.5539 c -0.59291,-0.57163 -1.18583,-1.14327 -1.77874,-1.7149 m 3.67086,3.3059 c -0.63071,-0.53033 -1.26141,-1.06067 -1.89212,-1.591 m 3.89409,3.0437 c -0.66732,-0.48423 -1.33465,-0.96847 -2.00197,-1.4527 m 4.09961,2.7637 c -0.69921,-0.437 -1.39843,-0.874 -2.09764,-1.311 m 4.28032,2.4732 c -0.72756,-0.3874 -1.45512,-0.7748 -2.18268,-1.1622 m 4.44331,2.1685 c -0.75354,-0.33543 -1.50709,-0.67087 -2.26063,-1.0063 m 4.58503,1.8532 c -0.7748,-0.2823 -1.5496,-0.5646 -2.3244,-0.8469 m 4.70196,1.5272 c -0.79252,-0.22677 -1.58504,-0.45353 -2.37756,-0.6803 m 4.79764,1.1941 c -0.80669,-0.17127 -1.61339,-0.34253 -2.42008,-0.5138 m 4.86851,0.8575 c -0.81614,-0.11457 -1.63229,-0.22913 -2.44843,-0.3437 m 4.91457,0.5173 c -0.82205,-0.0579 -1.64409,-0.11573 -2.46614,-0.1736 m 394.70315,0.1736 c -130.74567,0 -261.49134,0 -392.23701,0 m 394.70315,-0.1736 c -0.82205,0.0579 -1.64409,0.11573 -2.46614,0.1736 m 4.91456,-0.5173 c -0.81614,0.11457 -1.63228,0.22913 -2.44842,0.3437 m 4.8685,-0.8575 c -0.80669,0.17127 -1.61339,0.34253 -2.42008,0.5138 m 4.79764,-1.1941 c -0.79252,0.22677 -1.58504,0.45353 -2.37756,0.6803 m 4.70197,-1.5272 c -0.7748,0.2823 -1.54961,0.5646 -2.32441,0.8469 m 4.58504,-1.8532 c -0.75354,0.33543 -1.50709,0.67087 -2.26063,1.0063 m 4.44331,-2.1685 c -0.72756,0.3874 -1.45512,0.7748 -2.18268,1.1622 m 4.28032,-2.4732 c -0.69921,0.437 -1.39843,0.874 -2.09764,1.311 m 4.0996,-2.7637 c -0.66732,0.48423 -1.33464,0.96847 -2.00196,1.4527 m 3.89409,-3.0437 c -0.63071,0.53033 -1.26142,1.06067 -1.89213,1.591 m 3.67087,-3.3059 c -0.59291,0.57163 -1.18583,1.14327 -1.77874,1.7149 m 3.43347,-3.5539 c -0.55158,0.613 -1.10315,1.226 -1.65473,1.839 m 3.17835,-3.7878 c -0.50787,0.6496 -1.01575,1.2992 -1.52362,1.9488 m 2.90551,-4.0004 c -0.46063,0.68387 -0.92126,1.36773 -1.38189,2.0516 m 2.6185,-4.1918 c -0.4122,0.7134 -0.82441,1.4268 -1.23661,2.1402 m 2.32086,-4.3654 c -0.36142,0.74173 -0.72283,1.48347 -1.08425,2.2252 m 2.0126,-4.5177 c -0.30945,0.76417 -0.6189,1.52833 -0.92835,2.2925 m 1.6937,-4.6452 c -0.25512,0.78423 -0.51023,1.56847 -0.76535,2.3527 m 1.36063,-4.7516 c -0.19843,0.79963 -0.39685,1.59927 -0.59528,2.3989 m 1.02756,-4.8331 c -0.14409,0.8114 -0.28819,1.6228 -0.43228,2.4342 m 0.69095,-4.8933 c -0.0862,0.8197 -0.17245,1.6394 -0.25867,2.4591 m 0.3437,-4.9323 c -0.0283,0.8244 -0.0567,1.6488 -0.085,2.4732 m 0.085,-215.07162 c 0,70.86614 0,141.73228 0,212.59842 m -0.085,-215.07165 c 0.0283,0.82441 0.0567,1.64882 0.085,2.47323 m -0.34367,-4.93228 c 0.0862,0.81968 0.17245,1.63937 0.25867,2.45905 m -0.69095,-4.89331 c 0.14409,0.81142 0.28819,1.62284 0.43228,2.43426 m -1.02756,-4.83308 c 0.19843,0.79961 0.39685,1.59921 0.59528,2.39882 m -1.36063,-4.75157 c 0.25512,0.78425 0.51023,1.5685 0.76535,2.35275 m -1.6937,-4.64527 c 0.30945,0.76417 0.6189,1.52835 0.92835,2.29252 m -2.0126,-4.51772 c 0.36142,0.74173 0.72283,1.48347 1.08425,2.2252 m -2.32086,-4.36536 c 0.4122,0.71339 0.82441,1.42677 1.23661,2.14016 m -2.6185,-4.19173 c 0.46063,0.68386 0.92126,1.36771 1.38189,2.05157 m -2.90551,-4.00039 c 0.50787,0.64961 1.01575,1.29921 1.52362,1.94882 m -3.17835,-3.7878 c 0.55158,0.61299 1.10315,1.22599 1.65473,1.83898 m -3.43347,-3.55394 c 0.59291,0.57165 1.18583,1.14331 1.77874,1.71496 m -3.67087,-3.3059 c 0.63071,0.53031 1.26142,1.06063 1.89213,1.59094 m -3.89409,-3.0437 c 0.66732,0.48425 1.33464,0.96851 2.00196,1.45276 m -4.0996,-2.76378 c 0.69921,0.43701 1.39843,0.87401 2.09764,1.31102 m -4.28032,-2.47323 c 0.72756,0.3874 1.45512,0.77481 2.18268,1.16221 m -4.44331,-2.1685 c 0.75354,0.33543 1.50709,0.67086 2.26063,1.00629 m -4.58504,-1.85314 c 0.7748,0.28228 1.54961,0.56457 2.32441,0.84685 m -4.70197,-1.52717 c 0.79252,0.22677 1.58504,0.45355 2.37756,0.68032 m -4.79764,-1.1941 c 0.80669,0.17126 1.61339,0.34252 2.42008,0.51378 m -4.8685,-0.85748 c 0.81614,0.11457 1.63228,0.22913 2.44842,0.3437 m -4.91456,-0.51732 c 0.82205,0.0579 1.64409,0.11575 2.46614,0.17362 M 178.8815,390.65115 c 130.74567,0 261.49134,0 392.23701,0 m -394.70315,0.17362 c 0.82205,-0.0579 1.64409,-0.11575 2.46614,-0.17362 m -4.91457,0.51732 c 0.81614,-0.11457 1.63229,-0.22913 2.44843,-0.3437 m -4.86851,0.85748 c 0.80669,-0.17126 1.61339,-0.34252 2.42008,-0.51378 m -4.79764,1.1941 c 0.79252,-0.22677 1.58504,-0.45355 2.37756,-0.68032 m -4.70196,1.52717 c 0.7748,-0.28228 1.5496,-0.56457 2.3244,-0.84685 m -4.58503,1.85314 c 0.75354,-0.33543 1.50709,-0.67086 2.26063,-1.00629 m -4.44331,2.1685 c 0.72756,-0.3874 1.45512,-0.77481 2.18268,-1.16221 m -4.28032,2.47323 c 0.69921,-0.43701 1.39843,-0.87401 2.09764,-1.31102 m -4.09961,2.76378 c 0.66732,-0.48425 1.33465,-0.96851 2.00197,-1.45276 m -3.89409,3.0437 c 0.63071,-0.53031 1.26141,-1.06063 1.89212,-1.59094 m -3.67086,3.3059 c 0.59291,-0.57165 1.18583,-1.14331 1.77874,-1.71496 m -3.43347,3.55394 c 0.55158,-0.61299 1.10315,-1.22599 1.65473,-1.83898 m -3.17835,3.7878 c 0.50787,-0.64961 1.01575,-1.29921 1.52362,-1.94882 m -2.90551,4.00039 c 0.46063,-0.68386 0.92126,-1.36771 1.38189,-2.05157 m -2.6185,4.19173 c 0.4122,-0.71339 0.82441,-1.42677 1.23661,-2.14016 m -2.32087,4.36536 c 0.36142,-0.74173 0.72284,-1.48347 1.08426,-2.2252 m -2.0126,4.51772 c 0.30945,-0.76417 0.61889,-1.52835 0.92834,-2.29252 m -1.6937,4.64527 c 0.25512,-0.78425 0.51024,-1.5685 0.76536,-2.35275 m -1.36063,4.75157 c 0.19842,-0.79961 0.39685,-1.59921 0.59527,-2.39882 m -1.02756,4.83308 c 0.1441,-0.81142 0.28819,-1.62284 0.43229,-2.43426 m -0.69095,4.89331 c 0.0862,-0.81968 0.17244,-1.63937 0.25866,-2.45905 m -0.3437,4.93228 c 0.0283,-0.82441 0.0567,-1.64882 0.085,-2.47323 m -0.085,215.07165 c 0,-70.86614 0,-141.73228 0,-212.59842"
       inkscape:connector-curvature="0" />
  </g>
</svg>
