  0
SECTION
  2
BLOCKS
  0
ENDSEC
  0
SECTION
  2
ENTITIES
  0
LINE
  8
0
 10
-90
 11
-90
 20
-10
 21
70
  0
LINE
  8
0
 10
-90
 11
-89.976
 20
70
 21
70.698
  0
LINE
  8
0
 10
-89.976
 11
-89.903
 20
70.698
 21
71.392
  0
LINE
  8
0
 10
-89.903
 11
-89.781
 20
71.392
 21
72.079
  0
LINE
  8
0
 10
-89.781
 11
-89.613
 20
72.079
 21
72.756
  0
LINE
  8
0
 10
-89.613
 11
-89.397
 20
72.756
 21
73.42
  0
LINE
  8
0
 10
-89.397
 11
-89.135
 20
73.42
 21
74.067
  0
LINE
  8
0
 10
-89.135
 11
-88.829
 20
74.067
 21
74.695
  0
LINE
  8
0
 10
-88.829
 11
-88.48
 20
74.695
 21
75.299
  0
LINE
  8
0
 10
-88.48
 11
-88.09
 20
75.299
 21
75.878
  0
LINE
  8
0
 10
-88.09
 11
-87.66
 20
75.878
 21
76.428
  0
LINE
  8
0
 10
-87.66
 11
-87.193
 20
76.428
 21
76.947
  0
LINE
  8
0
 10
-87.193
 11
-86.691
 20
76.947
 21
77.431
  0
LINE
  8
0
 10
-86.691
 11
-86.157
 20
77.431
 21
77.88
  0
LINE
  8
0
 10
-86.157
 11
-85.592
 20
77.88
 21
78.29
  0
LINE
  8
0
 10
-85.592
 11
-85
 20
78.29
 21
78.66
  0
LINE
  8
0
 10
-85
 11
-84.384
 20
78.66
 21
78.988
  0
LINE
  8
0
 10
-84.384
 11
-83.746
 20
78.988
 21
79.272
  0
LINE
  8
0
 10
-83.746
 11
-83.09
 20
79.272
 21
79.511
  0
LINE
  8
0
 10
-83.09
 11
-82.419
 20
79.511
 21
79.703
  0
LINE
  8
0
 10
-82.419
 11
-81.736
 20
79.703
 21
79.848
  0
LINE
  8
0
 10
-81.736
 11
-81.045
 20
79.848
 21
79.945
  0
LINE
  8
0
 10
-81.045
 11
-80.349
 20
79.945
 21
79.994
  0
LINE
  8
0
 10
-80.349
 11
50.349
 20
79.994
 21
79.994
  0
LINE
  8
0
 10
50.349
 11
51.045
 20
79.994
 21
79.945
  0
LINE
  8
0
 10
51.045
 11
51.736
 20
79.945
 21
79.848
  0
LINE
  8
0
 10
51.736
 11
52.419
 20
79.848
 21
79.703
  0
LINE
  8
0
 10
52.419
 11
53.09
 20
79.703
 21
79.511
  0
LINE
  8
0
 10
53.09
 11
53.746
 20
79.511
 21
79.272
  0
LINE
  8
0
 10
53.746
 11
54.384
 20
79.272
 21
78.988
  0
LINE
  8
0
 10
54.384
 11
55
 20
78.988
 21
78.66
  0
LINE
  8
0
 10
55
 11
55.592
 20
78.66
 21
78.29
  0
LINE
  8
0
 10
55.592
 11
56.157
 20
78.29
 21
77.88
  0
LINE
  8
0
 10
56.157
 11
56.691
 20
77.88
 21
77.431
  0
LINE
  8
0
 10
56.691
 11
57.193
 20
77.431
 21
76.947
  0
LINE
  8
0
 10
57.193
 11
57.66
 20
76.947
 21
76.428
  0
LINE
  8
0
 10
57.66
 11
58.09
 20
76.428
 21
75.878
  0
LINE
  8
0
 10
58.09
 11
58.48
 20
75.878
 21
75.299
  0
LINE
  8
0
 10
58.48
 11
58.829
 20
75.299
 21
74.695
  0
LINE
  8
0
 10
58.829
 11
59.135
 20
74.695
 21
74.067
  0
LINE
  8
0
 10
59.135
 11
59.397
 20
74.067
 21
73.42
  0
LINE
  8
0
 10
59.397
 11
59.613
 20
73.42
 21
72.756
  0
LINE
  8
0
 10
59.613
 11
59.781
 20
72.756
 21
72.079
  0
LINE
  8
0
 10
59.781
 11
59.903
 20
72.079
 21
71.392
  0
LINE
  8
0
 10
59.903
 11
59.976
 20
71.392
 21
70.698
  0
LINE
  8
0
 10
59.976
 11
60
 20
70.698
 21
70
  0
LINE
  8
0
 10
60
 11
60
 20
70
 21
-10
  0
LINE
  8
0
 10
60
 11
59.976
 20
-10
 21
-10.698
  0
LINE
  8
0
 10
59.976
 11
59.903
 20
-10.698
 21
-11.392
  0
LINE
  8
0
 10
59.903
 11
59.781
 20
-11.392
 21
-12.079
  0
LINE
  8
0
 10
59.781
 11
59.613
 20
-12.079
 21
-12.756
  0
LINE
  8
0
 10
59.613
 11
59.397
 20
-12.756
 21
-13.42
  0
LINE
  8
0
 10
59.397
 11
59.135
 20
-13.42
 21
-14.067
  0
LINE
  8
0
 10
59.135
 11
58.829
 20
-14.067
 21
-14.695
  0
LINE
  8
0
 10
58.829
 11
58.48
 20
-14.695
 21
-15.299
  0
LINE
  8
0
 10
58.48
 11
58.09
 20
-15.299
 21
-15.878
  0
LINE
  8
0
 10
58.09
 11
57.66
 20
-15.878
 21
-16.428
  0
LINE
  8
0
 10
57.66
 11
57.193
 20
-16.428
 21
-16.947
  0
LINE
  8
0
 10
57.193
 11
56.691
 20
-16.947
 21
-17.431
  0
LINE
  8
0
 10
56.691
 11
56.157
 20
-17.431
 21
-17.88
  0
LINE
  8
0
 10
56.157
 11
55.592
 20
-17.88
 21
-18.29
  0
LINE
  8
0
 10
55.592
 11
55
 20
-18.29
 21
-18.66
  0
LINE
  8
0
 10
55
 11
54.384
 20
-18.66
 21
-18.988
  0
LINE
  8
0
 10
54.384
 11
53.746
 20
-18.988
 21
-19.272
  0
LINE
  8
0
 10
53.746
 11
53.09
 20
-19.272
 21
-19.511
  0
LINE
  8
0
 10
53.09
 11
52.419
 20
-19.511
 21
-19.703
  0
LINE
  8
0
 10
52.419
 11
51.736
 20
-19.703
 21
-19.848
  0
LINE
  8
0
 10
51.736
 11
51.045
 20
-19.848
 21
-19.945
  0
LINE
  8
0
 10
51.045
 11
50.349
 20
-19.945
 21
-19.994
  0
LINE
  8
0
 10
50.349
 11
-80.349
 20
-19.994
 21
-19.994
  0
LINE
  8
0
 10
-80.349
 11
-81.045
 20
-19.994
 21
-19.945
  0
LINE
  8
0
 10
-81.045
 11
-81.736
 20
-19.945
 21
-19.848
  0
LINE
  8
0
 10
-81.736
 11
-82.419
 20
-19.848
 21
-19.703
  0
LINE
  8
0
 10
-82.419
 11
-83.09
 20
-19.703
 21
-19.511
  0
LINE
  8
0
 10
-83.09
 11
-83.746
 20
-19.511
 21
-19.272
  0
LINE
  8
0
 10
-83.746
 11
-84.384
 20
-19.272
 21
-18.988
  0
LINE
  8
0
 10
-84.384
 11
-85
 20
-18.988
 21
-18.66
  0
LINE
  8
0
 10
-85
 11
-85.592
 20
-18.66
 21
-18.29
  0
LINE
  8
0
 10
-85.592
 11
-86.157
 20
-18.29
 21
-17.88
  0
LINE
  8
0
 10
-86.157
 11
-86.691
 20
-17.88
 21
-17.431
  0
LINE
  8
0
 10
-86.691
 11
-87.193
 20
-17.431
 21
-16.947
  0
LINE
  8
0
 10
-87.193
 11
-87.66
 20
-16.947
 21
-16.428
  0
LINE
  8
0
 10
-87.66
 11
-88.09
 20
-16.428
 21
-15.878
  0
LINE
  8
0
 10
-88.09
 11
-88.48
 20
-15.878
 21
-15.299
  0
LINE
  8
0
 10
-88.48
 11
-88.829
 20
-15.299
 21
-14.695
  0
LINE
  8
0
 10
-88.829
 11
-89.135
 20
-14.695
 21
-14.067
  0
LINE
  8
0
 10
-89.135
 11
-89.397
 20
-14.067
 21
-13.42
  0
LINE
  8
0
 10
-89.397
 11
-89.613
 20
-13.42
 21
-12.756
  0
LINE
  8
0
 10
-89.613
 11
-89.781
 20
-12.756
 21
-12.079
  0
LINE
  8
0
 10
-89.781
 11
-89.903
 20
-12.079
 21
-11.392
  0
LINE
  8
0
 10
-89.903
 11
-89.976
 20
-11.392
 21
-10.698
  0
LINE
  8
0
 10
-89.976
 11
-90
 20
-10.698
 21
-10
  0
LINE
  8
0
 10
-80
 11
-80
 20
0
 21
60
  0
LINE
  8
0
 10
-80
 11
-79.976
 20
60
 21
60.698
  0
LINE
  8
0
 10
-79.976
 11
-79.903
 20
60.698
 21
61.392
  0
LINE
  8
0
 10
-79.903
 11
-79.781
 20
61.392
 21
62.079
  0
LINE
  8
0
 10
-79.781
 11
-79.613
 20
62.079
 21
62.756
  0
LINE
  8
0
 10
-79.613
 11
-79.397
 20
62.756
 21
63.42
  0
LINE
  8
0
 10
-79.397
 11
-79.135
 20
63.42
 21
64.067
  0
LINE
  8
0
 10
-79.135
 11
-78.829
 20
64.067
 21
64.695
  0
LINE
  8
0
 10
-78.829
 11
-78.48
 20
64.695
 21
65.299
  0
LINE
  8
0
 10
-78.48
 11
-78.09
 20
65.299
 21
65.878
  0
LINE
  8
0
 10
-78.09
 11
-77.66
 20
65.878
 21
66.428
  0
LINE
  8
0
 10
-77.66
 11
-77.193
 20
66.428
 21
66.947
  0
LINE
  8
0
 10
-77.193
 11
-76.691
 20
66.947
 21
67.431
  0
LINE
  8
0
 10
-76.691
 11
-76.157
 20
67.431
 21
67.88
  0
LINE
  8
0
 10
-76.157
 11
-75.592
 20
67.88
 21
68.29
  0
LINE
  8
0
 10
-75.592
 11
-75
 20
68.29
 21
68.66
  0
LINE
  8
0
 10
-75
 11
-74.384
 20
68.66
 21
68.988
  0
LINE
  8
0
 10
-74.384
 11
-73.746
 20
68.988
 21
69.272
  0
LINE
  8
0
 10
-73.746
 11
-73.09
 20
69.272
 21
69.511
  0
LINE
  8
0
 10
-73.09
 11
-72.419
 20
69.511
 21
69.703
  0
LINE
  8
0
 10
-72.419
 11
-71.736
 20
69.703
 21
69.848
  0
LINE
  8
0
 10
-71.736
 11
-71.045
 20
69.848
 21
69.945
  0
LINE
  8
0
 10
-71.045
 11
-70.349
 20
69.945
 21
69.994
  0
LINE
  8
0
 10
-70.349
 11
40.349
 20
69.994
 21
69.994
  0
LINE
  8
0
 10
40.349
 11
41.045
 20
69.994
 21
69.945
  0
LINE
  8
0
 10
41.045
 11
41.736
 20
69.945
 21
69.848
  0
LINE
  8
0
 10
41.736
 11
42.419
 20
69.848
 21
69.703
  0
LINE
  8
0
 10
42.419
 11
43.09
 20
69.703
 21
69.511
  0
LINE
  8
0
 10
43.09
 11
43.746
 20
69.511
 21
69.272
  0
LINE
  8
0
 10
43.746
 11
44.384
 20
69.272
 21
68.988
  0
LINE
  8
0
 10
44.384
 11
45
 20
68.988
 21
68.66
  0
LINE
  8
0
 10
45
 11
45.592
 20
68.66
 21
68.29
  0
LINE
  8
0
 10
45.592
 11
46.157
 20
68.29
 21
67.88
  0
LINE
  8
0
 10
46.157
 11
46.691
 20
67.88
 21
67.431
  0
LINE
  8
0
 10
46.691
 11
47.193
 20
67.431
 21
66.947
  0
LINE
  8
0
 10
47.193
 11
47.66
 20
66.947
 21
66.428
  0
LINE
  8
0
 10
47.66
 11
48.09
 20
66.428
 21
65.878
  0
LINE
  8
0
 10
48.09
 11
48.48
 20
65.878
 21
65.299
  0
LINE
  8
0
 10
48.48
 11
48.829
 20
65.299
 21
64.695
  0
LINE
  8
0
 10
48.829
 11
49.135
 20
64.695
 21
64.067
  0
LINE
  8
0
 10
49.135
 11
49.397
 20
64.067
 21
63.42
  0
LINE
  8
0
 10
49.397
 11
49.613
 20
63.42
 21
62.756
  0
LINE
  8
0
 10
49.613
 11
49.781
 20
62.756
 21
62.079
  0
LINE
  8
0
 10
49.781
 11
49.903
 20
62.079
 21
61.392
  0
LINE
  8
0
 10
49.903
 11
49.976
 20
61.392
 21
60.698
  0
LINE
  8
0
 10
49.976
 11
50
 20
60.698
 21
60
  0
LINE
  8
0
 10
50
 11
50
 20
60
 21
0
  0
LINE
  8
0
 10
50
 11
49.976
 20
0
 21
-0.698
  0
LINE
  8
0
 10
49.976
 11
49.903
 20
-0.698
 21
-1.392
  0
LINE
  8
0
 10
49.903
 11
49.781
 20
-1.392
 21
-2.079
  0
LINE
  8
0
 10
49.781
 11
49.613
 20
-2.079
 21
-2.756
  0
LINE
  8
0
 10
49.613
 11
49.397
 20
-2.756
 21
-3.42
  0
LINE
  8
0
 10
49.397
 11
49.135
 20
-3.42
 21
-4.067
  0
LINE
  8
0
 10
49.135
 11
48.829
 20
-4.067
 21
-4.695
  0
LINE
  8
0
 10
48.829
 11
48.48
 20
-4.695
 21
-5.299
  0
LINE
  8
0
 10
48.48
 11
48.09
 20
-5.299
 21
-5.878
  0
LINE
  8
0
 10
48.09
 11
47.66
 20
-5.878
 21
-6.428
  0
LINE
  8
0
 10
47.66
 11
47.193
 20
-6.428
 21
-6.947
  0
LINE
  8
0
 10
47.193
 11
46.691
 20
-6.947
 21
-7.431
  0
LINE
  8
0
 10
46.691
 11
46.157
 20
-7.431
 21
-7.88
  0
LINE
  8
0
 10
46.157
 11
45.592
 20
-7.88
 21
-8.29
  0
LINE
  8
0
 10
45.592
 11
45
 20
-8.29
 21
-8.66
  0
LINE
  8
0
 10
45
 11
44.384
 20
-8.66
 21
-8.988
  0
LINE
  8
0
 10
44.384
 11
43.746
 20
-8.988
 21
-9.272
  0
LINE
  8
0
 10
43.746
 11
43.09
 20
-9.272
 21
-9.511
  0
LINE
  8
0
 10
43.09
 11
42.419
 20
-9.511
 21
-9.703
  0
LINE
  8
0
 10
42.419
 11
41.736
 20
-9.703
 21
-9.848
  0
LINE
  8
0
 10
41.736
 11
41.045
 20
-9.848
 21
-9.945
  0
LINE
  8
0
 10
41.045
 11
40.349
 20
-9.945
 21
-9.994
  0
LINE
  8
0
 10
40.349
 11
-70.349
 20
-9.994
 21
-9.994
  0
LINE
  8
0
 10
-70.349
 11
-71.045
 20
-9.994
 21
-9.945
  0
LINE
  8
0
 10
-71.045
 11
-71.736
 20
-9.945
 21
-9.848
  0
LINE
  8
0
 10
-71.736
 11
-72.419
 20
-9.848
 21
-9.703
  0
LINE
  8
0
 10
-72.419
 11
-73.09
 20
-9.703
 21
-9.511
  0
LINE
  8
0
 10
-73.09
 11
-73.746
 20
-9.511
 21
-9.272
  0
LINE
  8
0
 10
-73.746
 11
-74.384
 20
-9.272
 21
-8.988
  0
LINE
  8
0
 10
-74.384
 11
-75
 20
-8.988
 21
-8.66
  0
LINE
  8
0
 10
-75
 11
-75.592
 20
-8.66
 21
-8.29
  0
LINE
  8
0
 10
-75.592
 11
-76.157
 20
-8.29
 21
-7.88
  0
LINE
  8
0
 10
-76.157
 11
-76.691
 20
-7.88
 21
-7.431
  0
LINE
  8
0
 10
-76.691
 11
-77.193
 20
-7.431
 21
-6.947
  0
LINE
  8
0
 10
-77.193
 11
-77.66
 20
-6.947
 21
-6.428
  0
LINE
  8
0
 10
-77.66
 11
-78.09
 20
-6.428
 21
-5.878
  0
LINE
  8
0
 10
-78.09
 11
-78.48
 20
-5.878
 21
-5.299
  0
LINE
  8
0
 10
-78.48
 11
-78.829
 20
-5.299
 21
-4.695
  0
LINE
  8
0
 10
-78.829
 11
-79.135
 20
-4.695
 21
-4.067
  0
LINE
  8
0
 10
-79.135
 11
-79.397
 20
-4.067
 21
-3.42
  0
LINE
  8
0
 10
-79.397
 11
-79.613
 20
-3.42
 21
-2.756
  0
LINE
  8
0
 10
-79.613
 11
-79.781
 20
-2.756
 21
-2.079
  0
LINE
  8
0
 10
-79.781
 11
-79.903
 20
-2.079
 21
-1.392
  0
LINE
  8
0
 10
-79.903
 11
-79.976
 20
-1.392
 21
-0.698
  0
LINE
  8
0
 10
-79.976
 11
-80
 20
-0.698
 21
0
  0
ENDSEC
  0
SECTION
  2
OBJECTS
  0
DICTIONARY
  0
ENDSEC
  0
EOF
